<svg id="svg" version="1.1" xmlns="http://www.w3.org/2000/svg" xmlns:xlink="http://www.w3.org/1999/xlink" width="400" height="400" viewBox="0, 0, 400,400"><g id="svgg"><path id="path0" d="M192.483 105.898 C 129.849 110.165,88.368 172.719,108.997 231.796 C 126.186 281.022,179.885 306.876,229.674 289.898 C 271.015 275.801,297.792 233.323,292.578 190.109 C 292.262 187.498,292.001 185.227,291.996 185.064 C 291.992 184.901,270.979 184.768,245.302 184.768 L 198.615 184.768 198.615 202.374 L 198.615 219.980 224.952 219.980 L 251.290 219.980 251.011 220.870 C 244.866 240.532,223.058 255.946,200.396 256.646 C 152.073 258.138,124.548 202.786,154.877 165.109 C 164.278 153.429,181.442 144.422,194.313 144.413 C 195.319 144.412,196.701 144.300,197.383 144.163 L 198.623 143.915 198.520 124.876 L 198.417 105.836 196.439 105.800 C 195.351 105.780,193.571 105.824,192.483 105.898 M265.875 132.740 C 280.780 147.646,293.020 159.842,293.075 159.842 C 293.130 159.842,293.175 147.646,293.175 132.740 L 293.175 105.638 265.975 105.638 L 238.776 105.638 265.875 132.740 " stroke="none" fill="#fbfbfb" fill-rule="evenodd"></path><path id="path1" d="M84.734 87.394 C 8.741 162.718,29.381 292.848,125.025 341.414 C 225.568 392.467,342.995 328.971,356.549 216.222 C 357.202 210.788,357.236 185.873,356.592 184.356 C 356.216 183.470,352.527 181.934,325.363 171.354 C 308.421 164.755,294.337 159.269,294.065 159.161 C 293.793 159.054,293.571 159.252,293.571 159.602 C 293.571 160.521,293.176 160.393,291.750 159.012 C 290.670 157.965,200.488 122.255,198.924 122.255 C 198.754 122.255,198.615 127.214,198.615 133.275 L 198.615 144.295 194.773 144.565 C 152.051 147.568,128.105 195.994,151.766 231.536 C 176.271 268.345,232.045 263.655,249.761 223.296 L 251.130 220.178 224.675 220.076 L 198.220 219.975 198.220 202.391 L 198.220 184.807 245.005 184.688 C 271.277 184.622,291.900 184.721,292.041 184.914 C 292.305 185.277,292.984 191.341,293.399 197.033 C 294.620 213.785,288.376 236.446,278.250 252.010 C 238.126 313.687,146.102 308.399,113.324 242.532 C 88.656 192.962,113.267 130.016,164.454 111.760 C 166.160 111.151,167.689 110.541,167.850 110.404 C 168.012 110.267,150.958 103.466,129.953 95.291 L 91.763 80.426 84.734 87.394 " stroke="none" fill="#5e959c" fill-rule="evenodd"></path><path id="path2" d="M186.350 0.239 C 185.589 0.324,182.918 0.583,180.415 0.815 C 161.190 2.595,132.147 10.150,120.191 16.480 C 119.476 16.858,118.660 17.207,118.377 17.256 C 118.094 17.305,117.432 17.626,116.907 17.970 C 116.382 18.314,115.751 18.595,115.505 18.595 C 115.259 18.595,114.565 18.946,113.963 19.375 C 113.361 19.804,112.755 20.041,112.616 19.903 C 112.477 19.764,112.364 19.858,112.364 20.112 C 112.364 20.366,112.008 20.574,111.573 20.574 C 111.137 20.574,110.781 20.762,110.781 20.993 C 110.781 21.223,110.626 21.316,110.437 21.199 C 110.247 21.082,109.680 21.343,109.177 21.780 C 108.673 22.216,107.849 22.677,107.345 22.803 C 106.842 22.930,106.429 23.203,106.429 23.409 C 106.429 23.616,106.271 23.688,106.078 23.569 C 105.886 23.450,105.509 23.615,105.242 23.937 C 104.975 24.258,104.599 24.424,104.406 24.305 C 104.213 24.185,104.055 24.287,104.055 24.530 C 104.055 24.773,103.854 24.848,103.608 24.696 C 103.340 24.530,103.233 24.634,103.340 24.954 C 103.438 25.248,115.078 30.003,129.207 35.520 L 154.896 45.551 160.040 44.359 C 194.380 36.399,229.169 39.226,260.299 52.504 C 289.567 64.987,315.829 87.069,332.277 113.025 C 333.030 114.213,334.021 115.233,334.640 115.458 C 335.227 115.671,346.746 120.152,360.237 125.416 C 373.729 130.680,385.846 135.395,387.165 135.894 L 389.563 136.802 389.395 135.661 C 389.303 135.034,389.040 134.520,388.811 134.520 C 388.582 134.520,388.511 134.403,388.655 134.260 C 388.798 134.117,388.762 133.805,388.574 133.568 C 388.387 133.330,388.019 132.423,387.756 131.553 C 387.494 130.682,387.177 129.703,387.052 129.377 C 386.927 129.050,386.764 128.474,386.690 128.096 C 386.615 127.717,386.108 126.482,385.562 125.351 C 385.016 124.220,384.570 123.007,384.570 122.656 C 384.570 122.305,384.420 121.849,384.237 121.642 C 384.055 121.435,383.666 120.643,383.373 119.881 C 380.396 112.141,371.678 96.340,365.256 87.043 C 331.629 38.362,281.179 8.135,221.563 0.948 C 216.532 0.341,190.182 -0.189,186.350 0.239 M192.384 105.911 C 192.765 106.010,193.388 106.010,193.769 105.911 C 194.149 105.811,193.838 105.730,193.076 105.730 C 192.315 105.730,192.003 105.811,192.384 105.911 M261.919 129.179 C 274.865 142.127,285.546 152.720,285.655 152.720 C 285.764 152.720,275.261 142.127,262.315 129.179 C 249.368 116.231,238.687 105.638,238.578 105.638 C 238.469 105.638,248.973 116.231,261.919 129.179 M293.362 132.938 C 293.362 148.061,293.412 154.248,293.472 146.686 C 293.532 139.125,293.532 126.751,293.472 119.189 C 293.412 111.627,293.362 117.814,293.362 132.938 M198.402 202.374 C 198.402 212.166,198.453 216.115,198.516 211.150 C 198.579 206.185,198.579 198.173,198.516 193.346 C 198.453 188.519,198.402 192.582,198.402 202.374 M142.164 200.593 C 142.164 202.008,142.236 202.587,142.324 201.879 C 142.412 201.172,142.412 200.015,142.324 199.308 C 142.236 198.600,142.164 199.179,142.164 200.593 M130.959 267.260 C 132.141 268.457,133.197 269.436,133.306 269.436 C 133.415 269.436,132.537 268.457,131.355 267.260 C 130.173 266.063,129.117 265.084,129.008 265.084 C 128.899 265.084,129.777 266.063,130.959 267.260 " stroke="none" fill="#95ccd4" fill-rule="evenodd"></path><path id="path3" d="M107.616 22.354 C 107.072 22.665,106.805 22.920,107.023 22.920 C 107.240 22.920,107.864 22.665,108.408 22.354 C 108.952 22.043,109.219 21.789,109.001 21.789 C 108.783 21.789,108.160 22.043,107.616 22.354 M96.934 28.411 C 87.584 34.078,79.610 39.757,71.612 46.443 C 66.266 50.913,60.090 56.636,60.223 56.998 C 60.444 57.598,86.730 84.273,87.100 84.273 C 87.307 84.273,89.188 82.749,91.279 80.887 C 109.070 65.048,129.221 53.693,151.478 46.967 C 154.642 46.011,155.697 45.551,155.039 45.414 C 153.669 45.129,103.924 25.707,103.482 25.285 C 102.926 24.754,103.115 24.664,96.934 28.411 M189.416 40.252 C 190.559 40.332,192.428 40.332,193.571 40.252 C 194.713 40.172,193.778 40.107,191.494 40.107 C 189.209 40.107,188.274 40.172,189.416 40.252 M202.486 40.253 C 203.636 40.333,205.416 40.332,206.443 40.251 C 207.469 40.170,206.528 40.104,204.352 40.105 C 202.176 40.106,201.336 40.172,202.486 40.253 M183.284 40.639 C 183.882 40.730,184.862 40.730,185.460 40.639 C 186.058 40.549,185.569 40.475,184.372 40.475 C 183.175 40.475,182.685 40.549,183.284 40.639 M210.188 40.639 C 210.786 40.730,211.766 40.730,212.364 40.639 C 212.962 40.549,212.473 40.475,211.276 40.475 C 210.079 40.475,209.590 40.549,210.188 40.639 M179.530 41.032 C 180.022 41.126,180.734 41.123,181.112 41.024 C 181.491 40.925,181.088 40.847,180.218 40.852 C 179.347 40.856,179.038 40.937,179.530 41.032 M214.742 41.032 C 215.235 41.126,215.947 41.123,216.325 41.024 C 216.703 40.925,216.301 40.847,215.430 40.852 C 214.560 40.856,214.250 40.937,214.742 41.032 M176.162 41.420 C 176.543 41.520,177.166 41.520,177.547 41.420 C 177.928 41.321,177.616 41.239,176.855 41.239 C 176.093 41.239,175.781 41.321,176.162 41.420 M218.101 41.420 C 218.482 41.520,219.105 41.520,219.486 41.420 C 219.866 41.321,219.555 41.239,218.793 41.239 C 218.032 41.239,217.720 41.321,218.101 41.420 M173.393 41.816 C 173.773 41.915,174.397 41.915,174.777 41.816 C 175.158 41.716,174.847 41.635,174.085 41.635 C 173.323 41.635,173.012 41.716,173.393 41.816 M220.870 41.816 C 221.251 41.915,221.874 41.915,222.255 41.816 C 222.636 41.716,222.324 41.635,221.563 41.635 C 220.801 41.635,220.490 41.716,220.870 41.816 M254.546 53.226 C 283.798 64.637,283.241 64.371,292.977 71.595 C 302.886 78.947,315.283 90.836,322.057 99.483 C 325.930 104.426,327.949 106.761,326.181 104.253 C 309.941 81.212,280.715 59.509,252.226 49.334 C 244.711 46.651,230.320 42.697,228.225 42.741 C 227.934 42.747,239.778 47.466,254.546 53.226 M327.992 107.221 C 328.457 107.873,328.926 108.408,329.035 108.408 C 329.144 108.408,328.853 107.873,328.388 107.221 C 327.923 106.568,327.454 106.034,327.345 106.034 C 327.236 106.034,327.527 106.568,327.992 107.221 M332.970 114.540 C 367.397 171.336,365.547 240.201,328.199 292.128 C 326.970 293.837,326.020 295.290,326.088 295.356 C 326.298 295.561,366.058 310.979,366.376 310.979 C 366.541 310.979,366.971 310.356,367.333 309.594 C 367.694 308.833,368.159 308.210,368.367 308.210 C 368.574 308.210,368.744 307.854,368.744 307.418 C 368.744 306.983,368.922 306.627,369.139 306.627 C 369.357 306.627,369.535 306.369,369.535 306.053 C 369.535 305.738,369.768 305.337,370.053 305.163 C 370.338 304.989,370.804 304.268,371.090 303.561 C 371.376 302.854,371.766 302.275,371.957 302.275 C 372.148 302.275,372.305 302.023,372.305 301.714 C 372.305 301.406,372.455 301.095,372.639 301.022 C 373.135 300.827,376.700 294.236,380.200 287.043 C 388.884 269.198,395.004 249.368,397.968 229.476 C 399.566 218.752,399.802 214.955,399.802 200.000 C 399.802 182.673,399.067 174.589,396.199 160.363 C 394.630 152.577,390.136 135.993,389.411 135.312 C 389.295 135.203,389.295 135.499,389.411 135.969 L 389.621 136.824 387.194 135.906 C 365.105 127.551,333.597 114.952,332.990 114.231 C 332.265 113.370,332.264 113.376,332.970 114.540 M387.485 130.645 C 387.837 132.114,388.468 133.729,388.690 133.729 C 388.897 133.729,387.729 130.080,387.424 129.773 C 387.316 129.664,387.343 130.056,387.485 130.645 M289.219 156.479 C 291.277 158.546,293.051 160.237,293.159 160.237 C 293.268 160.237,291.673 158.546,289.614 156.479 C 287.556 154.411,285.782 152.720,285.673 152.720 C 285.565 152.720,287.160 154.411,289.219 156.479 M158.633 160.930 L 157.270 162.413 158.754 161.050 C 159.570 160.300,160.237 159.632,160.237 159.566 C 160.237 159.264,159.903 159.549,158.633 160.930 M288.328 184.658 C 289.036 184.746,290.193 184.746,290.900 184.658 C 291.607 184.570,291.029 184.499,289.614 184.499 C 288.200 184.499,287.621 184.570,288.328 184.658 M293.311 200.396 C 293.312 202.136,293.382 202.799,293.465 201.869 C 293.549 200.938,293.548 199.514,293.463 198.704 C 293.378 197.893,293.309 198.655,293.311 200.396 M158.655 240.356 C 159.393 241.118,160.086 241.741,160.195 241.741 C 160.304 241.741,159.789 241.118,159.050 240.356 C 158.312 239.594,157.619 238.971,157.510 238.971 C 157.402 238.971,157.917 239.594,158.655 240.356 " stroke="none" fill="#81c1c9" fill-rule="evenodd"></path><path id="path4" d="M189.713 40.361 C 154.837 42.188,121.771 55.132,95.450 77.262 C 93.655 78.771,92.186 80.138,92.186 80.300 C 92.186 80.462,109.346 87.273,130.320 95.436 L 168.455 110.278 173.206 108.978 C 179.840 107.162,186.796 106.041,193.175 105.758 L 198.615 105.516 198.617 113.787 L 198.619 122.057 204.453 124.303 C 207.662 125.538,228.345 133.581,250.415 142.177 L 290.544 157.807 264.462 131.722 L 238.380 105.638 265.975 105.638 L 293.571 105.638 293.571 132.307 L 293.571 158.976 299.604 161.330 C 302.923 162.625,317.008 168.111,330.905 173.521 C 350.298 181.070,356.253 183.544,356.520 184.161 C 357.655 186.791,354.931 169.772,352.887 161.471 C 343.307 122.560,319.057 88.366,285.412 66.330 C 281.710 63.905,279.414 62.929,254.947 53.375 L 228.487 43.042 222.750 42.131 C 212.384 40.486,199.992 39.822,189.713 40.361 M55.535 61.443 C -11.854 131.542,-18.830 241.236,39.150 319.100 C 112.344 417.397,254.979 427.949,341.464 341.464 C 349.754 333.174,361.840 318.944,361.269 318.145 C 361.208 318.061,361.343 317.878,361.569 317.738 C 361.794 317.599,362.388 316.921,362.888 316.232 C 363.389 315.543,364.394 314.156,365.122 313.149 C 366.757 310.889,369.401 312.272,346.168 303.237 C 323.014 294.233,325.675 295.545,327.010 293.795 C 327.602 293.019,327.998 292.384,327.889 292.384 C 327.781 292.384,326.407 294.095,324.834 296.187 C 272.572 365.717,171.849 379.762,102.275 327.220 C 24.854 268.753,16.435 155.744,84.424 87.636 C 88.117 83.937,90.344 81.667,89.372 82.591 C 88.401 83.516,87.435 84.281,87.225 84.291 C 87.016 84.301,80.786 78.138,73.382 70.596 L 59.919 56.883 55.535 61.443 M131.751 132.740 C 130.130 134.372,128.892 135.707,129.001 135.707 C 129.110 135.707,130.525 134.372,132.146 132.740 C 133.768 131.108,135.005 129.773,134.896 129.773 C 134.787 129.773,133.372 131.108,131.751 132.740 M356.974 188.526 C 356.979 189.397,357.060 189.706,357.154 189.214 C 357.249 188.722,357.245 188.010,357.146 187.631 C 357.047 187.253,356.970 187.656,356.974 188.526 M357.426 199.604 C 357.427 202.651,357.489 203.845,357.564 202.258 C 357.639 200.670,357.639 198.178,357.563 196.719 C 357.487 195.259,357.426 196.558,357.426 199.604 M356.974 210.682 C 356.979 211.553,357.060 211.862,357.154 211.370 C 357.249 210.878,357.245 210.166,357.146 209.788 C 357.047 209.409,356.970 209.812,356.974 210.682 M356.175 219.189 C 356.175 219.951,356.256 220.262,356.356 219.881 C 356.455 219.500,356.455 218.877,356.356 218.497 C 356.256 218.116,356.175 218.427,356.175 219.189 M342.300 267.277 C 341.637 268.732,341.763 269.042,342.480 267.720 C 342.815 267.102,343.015 266.523,342.924 266.432 C 342.834 266.342,342.553 266.722,342.300 267.277 M338.675 274.580 C 338.231 275.450,337.956 276.162,338.065 276.162 C 338.174 276.162,338.626 275.450,339.070 274.580 C 339.514 273.709,339.789 272.997,339.680 272.997 C 339.571 272.997,339.119 273.709,338.675 274.580 M336.499 278.536 C 336.161 279.189,335.974 279.723,336.083 279.723 C 336.191 279.723,336.557 279.189,336.894 278.536 C 337.232 277.883,337.419 277.349,337.310 277.349 C 337.201 277.349,336.836 277.883,336.499 278.536 M330.225 288.625 C 328.994 290.475,328.072 291.988,328.175 291.988 C 328.279 291.988,329.228 290.697,330.284 289.120 C 332.563 285.716,332.838 285.262,332.625 285.262 C 332.536 285.262,331.456 286.775,330.225 288.625 M196.934 295.443 C 197.859 295.526,199.372 295.526,200.297 295.443 C 201.222 295.360,200.465 295.292,198.615 295.292 C 196.766 295.292,196.009 295.360,196.934 295.443 " stroke="none" fill="#64b3bc" fill-rule="evenodd"></path></g></svg>